<svg width="56" height="56" viewBox="0 0 56 56" fill="none" xmlns="http://www.w3.org/2000/svg">
<path d="M28 54.4463C13.3956 54.4463 1.55648 42.6072 1.55648 28.0028C1.55648 13.3985 13.3956 1.55933 28 1.55933C42.6043 1.55933 54.4435 13.3985 54.4435 28.0028C54.4435 42.6072 42.6043 54.4463 28 54.4463ZM28 54.4463L28.7508 44.8527C28.8556 43.5182 29.3968 42.2573 30.2921 41.2657L34.1653 36.9732C34.8368 36.2308 35.0776 35.1938 34.8085 34.2305L32.0091 28L36.5935 20.2565L40.7896 20.197C43.2716 19.9023 45.085 17.7065 44.9065 15.2132L46.2806 8.89766M17.749 52.3808L11.2522 35.5537C10.4588 32.6693 12.2438 29.7113 15.1678 29.071L23.4156 28.4137L29.4421 18.6387L24.8975 12.6377C24.3025 11.85 23.3873 11.3683 22.4013 11.3202L18.9928 11.1558C16.9783 11.0595 15.5107 9.20649 15.8762 7.22316L16.4315 4.22833" stroke="#F2F2F2" stroke-width="3" stroke-miterlimit="10" stroke-linecap="round" stroke-linejoin="round"/>
<path d="M28 54.4463C13.3956 54.4463 1.55648 42.6072 1.55648 28.0028C1.55648 13.3985 13.3956 1.55933 28 1.55933C42.6043 1.55933 54.4435 13.3985 54.4435 28.0028C54.4435 42.6072 42.6043 54.4463 28 54.4463ZM28 54.4463L28.7508 44.8527C28.8556 43.5182 29.3968 42.2573 30.2921 41.2657L34.1653 36.9732C34.8368 36.2308 35.0776 35.1938 34.8085 34.2305L32.0091 28L36.5935 20.2565L40.7896 20.197C43.2716 19.9023 45.085 17.7065 44.9065 15.2132L46.2806 8.89766M17.749 52.3808L11.2522 35.5537C10.4588 32.6693 12.2438 29.7113 15.1678 29.071L23.4156 28.4137L29.4421 18.6387L24.8975 12.6377C24.3025 11.85 23.3873 11.3683 22.4013 11.3202L18.9928 11.1558C16.9783 11.0595 15.5107 9.20649 15.8762 7.22316L16.4315 4.22833" stroke="url(#paint0_linear_74_31)" stroke-width="3" stroke-miterlimit="10" stroke-linecap="round" stroke-linejoin="round"/>
<defs>
<linearGradient id="paint0_linear_74_31" x1="28" y1="-31.015" x2="28" y2="177" gradientUnits="userSpaceOnUse">
<stop stop-color="#E4D207"/>
<stop offset="1" stop-color="#12C519"/>
</linearGradient>
</defs>
</svg>
