<svg width="56" height="56" viewBox="0 0 56 56" fill="none" xmlns="http://www.w3.org/2000/svg">
<path d="M1.5564 50.2162V33.219C1.5564 30.0882 4.09223 27.5523 7.22306 27.5523H16.6666M35.5564 1.55933C40.1946 1.55933 43.9516 5.31916 43.9516 9.95449C43.9516 14.5898 40.1917 18.3497 35.5564 18.3497M48.7767 27.5552C51.9076 27.5552 54.4434 30.091 54.4434 33.2218V50.219M43.1101 54.4407H20.4434M28.8386 9.95449C28.8386 14.591 25.0799 18.3497 20.4434 18.3497C15.8069 18.3497 12.0482 14.591 12.0482 9.95449C12.0482 5.31797 15.8069 1.55933 20.4434 1.55933C25.0799 1.55933 28.8386 5.31797 28.8386 9.95449ZM40.1719 35.9503C40.1719 40.5868 36.4133 44.3455 31.7767 44.3455C27.1402 44.3455 23.3816 40.5868 23.3816 35.9503C23.3816 31.3138 27.1402 27.5552 31.7767 27.5552C36.4133 27.5552 40.1719 31.3138 40.1719 35.9503Z" stroke="black" stroke-width="3" stroke-miterlimit="10" stroke-linecap="round" stroke-linejoin="round"/>
<path d="M1.5564 50.2162V33.219C1.5564 30.0882 4.09223 27.5523 7.22306 27.5523H16.6666M35.5564 1.55933C40.1946 1.55933 43.9516 5.31916 43.9516 9.95449C43.9516 14.5898 40.1917 18.3497 35.5564 18.3497M48.7767 27.5552C51.9076 27.5552 54.4434 30.091 54.4434 33.2218V50.219M43.1101 54.4407H20.4434M28.8386 9.95449C28.8386 14.591 25.0799 18.3497 20.4434 18.3497C15.8069 18.3497 12.0482 14.591 12.0482 9.95449C12.0482 5.31797 15.8069 1.55933 20.4434 1.55933C25.0799 1.55933 28.8386 5.31797 28.8386 9.95449ZM40.1719 35.9503C40.1719 40.5868 36.4133 44.3455 31.7767 44.3455C27.1402 44.3455 23.3816 40.5868 23.3816 35.9503C23.3816 31.3138 27.1402 27.5552 31.7767 27.5552C36.4133 27.5552 40.1719 31.3138 40.1719 35.9503Z" stroke="url(#paint0_linear_3_139)" stroke-width="3" stroke-miterlimit="10" stroke-linecap="round" stroke-linejoin="round"/>
<defs>
<linearGradient id="paint0_linear_3_139" x1="27.9999" y1="-6.4673" x2="27.9999" y2="61.7591" gradientUnits="userSpaceOnUse">
<stop stop-color="#8F2ADC"/>
<stop offset="1" stop-color="#D351B9"/>
</linearGradient>
</defs>
</svg>
