<svg width="116" height="113" viewBox="0 0 116 113" fill="none" xmlns="http://www.w3.org/2000/svg">
<path d="M54.7004 1.89802C56.5878 0.240313 59.4122 0.240311 61.2995 1.89801L77.2584 15.9147C77.9436 16.5165 78.7803 16.9195 79.678 17.08L100.587 20.8178C103.06 21.2599 104.821 23.468 104.701 25.9772L103.693 47.1936C103.65 48.1045 103.856 49.0099 104.29 49.8119L114.405 68.4896C115.601 70.6985 114.972 73.452 112.936 74.9232L95.7196 87.3629C94.9804 87.897 94.4014 88.6231 94.0452 89.4626L85.7484 109.015C84.7672 111.328 82.2226 112.553 79.8028 111.879L59.3428 106.174C58.4644 105.929 57.5356 105.929 56.6572 106.174L36.1972 111.879C33.7774 112.553 31.2328 111.328 30.2516 109.015L21.9548 89.4626C21.5986 88.6231 21.0196 87.897 20.2804 87.3629L3.0639 74.9232C1.02778 73.452 0.399303 70.6985 1.59546 68.4896L11.7096 49.8119C12.1438 49.0099 12.3505 48.1045 12.3072 47.1936L11.2986 25.9772C11.1794 23.468 12.9403 21.2599 15.4131 20.8178L36.322 17.08C37.2197 16.9195 38.0564 16.5165 38.7416 15.9147L54.7004 1.89802Z" fill="#40BFF4"/>
</svg>
